<svg xmlns="http://www.w3.org/2000/svg" width="123" height="123" viewBox="0 0 123 123">
  <g id="technologies_ic33" transform="translate(-0.362)">
    <circle id="Ellipse_2038" data-name="Ellipse 2038" cx="61.5" cy="61.5" r="61.5" transform="translate(0.362)" fill="#f90"/>
    <g id="Group_41161" data-name="Group 41161" transform="translate(31.018 44.213)">
      <path id="Path_150399" data-name="Path 150399" d="M273.373,381.1a6.074,6.074,0,0,0,.228,1.816,10.88,10.88,0,0,0,.661,1.479.819.819,0,0,1,.144.469.807.807,0,0,1-.385.613l-1.287.854a.934.934,0,0,1-.529.18.963.963,0,0,1-.613-.289,6.353,6.353,0,0,1-.733-.962c-.228-.4-.445-.794-.637-1.2a7.562,7.562,0,0,1-6.024,2.826,5.619,5.619,0,0,1-4.088-1.467,5.78,5.78,0,0,1,.349-8.152,7.426,7.426,0,0,1,5.014-1.6,15.1,15.1,0,0,1,2.164.168c.758.108,1.539.265,2.357.457v-1.491a4.5,4.5,0,0,0-.962-3.271,4.675,4.675,0,0,0-3.331-.938,9.5,9.5,0,0,0-2.212.265,15.745,15.745,0,0,0-2.212.7,4.677,4.677,0,0,1-.721.265,1.541,1.541,0,0,1-.325.06c-.289,0-.433-.2-.433-.637v-1a1.271,1.271,0,0,1,.144-.721,1.589,1.589,0,0,1,.577-.433,12.051,12.051,0,0,1,2.573-.926,12.457,12.457,0,0,1,3.2-.385c2.441,0,4.221.553,5.363,1.659a6.749,6.749,0,0,1,1.7,5.038v6.637Zm-8.309,3.114a6.428,6.428,0,0,0,2.1-.373,4.558,4.558,0,0,0,1.948-1.311,3.221,3.221,0,0,0,.7-1.311,7.473,7.473,0,0,0,.2-1.78v-.854a16.806,16.806,0,0,0-1.888-.349,14.76,14.76,0,0,0-1.924-.12,4.727,4.727,0,0,0-3.054.818,2.864,2.864,0,0,0-1,2.357,2.641,2.641,0,0,0,2.91,2.922Zm16.437,2.212a1.149,1.149,0,0,1-.782-.2,1.6,1.6,0,0,1-.433-.794l-4.81-15.824a3.213,3.213,0,0,1-.18-.818.457.457,0,0,1,.493-.517H277.8a1.124,1.124,0,0,1,.794.2,1.6,1.6,0,0,1,.409.806l3.439,13.551,3.2-13.551a1.606,1.606,0,0,1,.385-.806,1.3,1.3,0,0,1,.818-.2h1.647a1.217,1.217,0,0,1,.818.2,1.357,1.357,0,0,1,.385.806l3.235,13.72,3.547-13.72a1.814,1.814,0,0,1,.409-.806,1.253,1.253,0,0,1,.794-.2h1.912a.464.464,0,0,1,.517.517,1.634,1.634,0,0,1-.048.325,3.644,3.644,0,0,1-.144.517l-4.93,15.824a1.491,1.491,0,0,1-.433.794,1.362,1.362,0,0,1-.782.2H292a1.238,1.238,0,0,1-.818-.2,1.519,1.519,0,0,1-.385-.818l-3.174-13.2-3.15,13.191a1.717,1.717,0,0,1-.385.818,1.282,1.282,0,0,1-.818.2Zm26.309.553a13.131,13.131,0,0,1-3.15-.373,9.548,9.548,0,0,1-2.357-.818,1.448,1.448,0,0,1-.637-.577,1.343,1.343,0,0,1-.12-.577v-1.046c0-.433.168-.637.469-.637a1.415,1.415,0,0,1,.373.06c.12.036.313.12.517.2a11.174,11.174,0,0,0,2.249.721,11.919,11.919,0,0,0,2.441.24,5.605,5.605,0,0,0,2.994-.673,2.242,2.242,0,0,0,1.07-1.948,1.986,1.986,0,0,0-.553-1.431,5.38,5.38,0,0,0-2.068-1.07l-2.97-.926a6.259,6.259,0,0,1-3.271-2.08,4.857,4.857,0,0,1-1.022-2.97,4.675,4.675,0,0,1,.553-2.273,5.345,5.345,0,0,1,1.479-1.683,6.682,6.682,0,0,1,2.128-1.07,9.134,9.134,0,0,1,2.585-.349,10.489,10.489,0,0,1,1.371.084c.469.06.9.144,1.335.228.409.108.806.2,1.166.325a3.775,3.775,0,0,1,.866.373,1.7,1.7,0,0,1,.613.517,1.117,1.117,0,0,1,.18.673v.962c0,.433-.168.661-.469.661a2.465,2.465,0,0,1-.782-.24,9.391,9.391,0,0,0-3.932-.794,5.237,5.237,0,0,0-2.73.577,1.967,1.967,0,0,0-.962,1.816,1.925,1.925,0,0,0,.613,1.455,6.183,6.183,0,0,0,2.249,1.13l2.91.914a6.251,6.251,0,0,1,3.174,1.972,4.618,4.618,0,0,1,.938,2.862,5.29,5.29,0,0,1-.529,2.381,5.679,5.679,0,0,1-1.491,1.8,6.52,6.52,0,0,1-2.273,1.142A10,10,0,0,1,307.811,386.975Zm3.872,9.944c-6.734,4.978-16.521,7.611-24.938,7.611A45.092,45.092,0,0,1,256.3,392.915c-.637-.577-.06-1.347.7-.9a61.41,61.41,0,0,0,30.47,8.092,60.742,60.742,0,0,0,23.243-4.75C311.827,394.851,312.789,396.1,311.682,396.919Zm2.8-3.186c-.866-1.106-5.7-.529-7.888-.265-.649.084-.758-.493-.156-.926,3.848-2.705,10.173-1.924,10.918-1.022.733.926-.2,7.251-3.812,10.281-.553.469-1.082.228-.842-.385C313.522,399.384,315.35,394.815,314.484,393.733Z" transform="translate(-256.025 -367.7)" fill="#fff"/>
    </g>
  </g>
</svg>
