<svg xmlns="http://www.w3.org/2000/svg" width="123" height="123" viewBox="0 0 123 123">
  <g id="technologies_ic13_1" transform="translate(-889 -15242)">
    <g id="technologies_ic9" transform="translate(622 238)" opacity="0">
      <rect id="Rectangle_9209" data-name="Rectangle 9209" width="123" height="123" rx="8" transform="translate(267 15004)" fill="#00aed9"/>
    </g>
    <g id="go-logo-white" transform="translate(888.3 15282.941)">
      <path id="Path_150354" data-name="Path 150354" d="M16.04,22.616c-.24,0-.3-.12-.18-.3L17.118,20.7a.858.858,0,0,1,.659-.3h21.38c.24,0,.3.18.18.359l-1.018,1.557a.913.913,0,0,1-.6.359Z" transform="translate(-6.057 -7.836)" fill="#00aed9" fill-rule="evenodd"/>
      <path id="Path_150355" data-name="Path 150355" d="M.94,31.816c-.24,0-.3-.12-.18-.3L2.018,29.9a.858.858,0,0,1,.659-.3H29.985a.275.275,0,0,1,.3.359L29.8,31.4a.524.524,0,0,1-.539.359Z" transform="translate(0 -11.526)" fill="#00aed9" fill-rule="evenodd"/>
      <path id="Path_150356" data-name="Path 150356" d="M25.14,41.016c-.24,0-.3-.18-.18-.359l.838-1.5a.794.794,0,0,1,.6-.359H38.375c.24,0,.359.18.359.419l-.12,1.437a.45.45,0,0,1-.419.419Z" transform="translate(-9.707 -15.217)" fill="#00aed9" fill-rule="evenodd"/>
      <g id="Group_41159" data-name="Group 41159" transform="translate(33.347 0.866)">
        <path id="Path_150357" data-name="Path 150357" d="M44.462,13.7c-3.773.958-6.348,1.677-10.061,2.635-.9.24-.958.3-1.737-.6a8.016,8.016,0,0,0-2.815-2.276c-3.773-1.856-7.426-1.318-10.84.9A12.736,12.736,0,0,0,12.9,25.739a9.388,9.388,0,0,0,8.085,9.4,11.053,11.053,0,0,0,10.181-3.953c.539-.659,1.018-1.377,1.617-2.216H21.226c-1.258,0-1.557-.779-1.138-1.8.779-1.856,2.216-4.971,3.054-6.528a1.617,1.617,0,0,1,1.5-.958h21.8c-.12,1.617-.12,3.234-.359,4.851a25.54,25.54,0,0,1-4.911,11.738A24.947,24.947,0,0,1,24.1,46.46a21.213,21.213,0,0,1-16.11-3.953A18.811,18.811,0,0,1,.386,29.213a23.5,23.5,0,0,1,5.09-17.547A26.576,26.576,0,0,1,22.244,1.305C27.874.287,33.264.946,38.114,4.24a18.772,18.772,0,0,1,6.947,8.444c.359.539.12.838-.6,1.018Z" transform="translate(-0.215 -0.866)" fill="#00aed9" fill-rule="evenodd"/>
        <path id="Path_150358" data-name="Path 150358" d="M92.878,47.191a22.466,22.466,0,0,1-14.612-5.27A18.782,18.782,0,0,1,71.8,30.363a22.862,22.862,0,0,1,4.851-18.086c4.372-5.749,9.642-8.743,16.768-10C99.526,1.2,105.275,1.8,110.485,5.33a18.641,18.641,0,0,1,8.444,13.355,23.117,23.117,0,0,1-6.887,20.3,27.442,27.442,0,0,1-14.373,7.666C96.052,46.951,94.435,47.011,92.878,47.191ZM107.131,23a17.235,17.235,0,0,0-.18-1.976,9.865,9.865,0,0,0-12.217-7.965,13.082,13.082,0,0,0-10.48,10.42,9.863,9.863,0,0,0,5.51,11.319,10.979,10.979,0,0,0,9.762-.359c4.731-2.455,7.306-6.288,7.606-11.438Z" transform="translate(-28.808 -1.237)" fill="#00aed9"/>
      </g>
    </g>
  </g>
</svg>
