<svg xmlns="http://www.w3.org/2000/svg" width="103.606" height="123" viewBox="0 0 103.606 123">
  <g id="technologies_ic28" transform="translate(-0.003)">
    <path id="Path_150390" data-name="Path 150390" d="M25.47,7.01H60.164C78.792,7.01,85.813,16.427,84.7,30.3c-1.776,22.882-15.612,35.52-33.951,35.52H41.5c-2.519,0-4.213,1.652-4.874,6.2L32.7,98.248c-.248,1.693-1.156,2.685-2.478,2.809H8.412c-2.065,0-2.767-1.57-2.23-4.956L19.44,11.966c.537-3.346,2.354-4.956,6.03-4.956Z" transform="translate(18.797 21.943)" fill="#009ee3" fill-rule="evenodd"/>
    <path id="Path_150393" data-name="Path 150393" d="M22.583,0H57.319c9.789,0,21.395.33,29.119,7.145C91.6,11.73,94.326,19,93.706,26.847,91.559,53.363,75.74,68.191,54.469,68.191H37.328c-2.933,0-4.832,1.941-5.658,7.145l-4.791,30.44c-.33,1.983-1.156,3.139-2.685,3.263H2.8c-2.354,0-3.222-1.776-2.6-5.741L15.6,5.782C16.222,1.859,18.37,0,22.583,0Z" transform="translate(0)" fill="#113984" fill-rule="evenodd"/>
    <path id="Path_150394" data-name="Path 150394" d="M7.79,50.368,13.862,12c.537-3.346,2.354-5,6.03-5H54.586a33.786,33.786,0,0,1,14,2.561C65.118,33.145,49.836,46.279,29.846,46.279H12.788c-2.313,0-3.965,1.156-5,4.089Z" transform="translate(24.375 21.912)" fill="#172c70" fill-rule="evenodd"/>
  </g>
</svg>
