<svg xmlns="http://www.w3.org/2000/svg" xmlns:xlink="http://www.w3.org/1999/xlink" width="87.684" height="123" viewBox="0 0 87.684 123">
  <defs>
    <linearGradient id="linear-gradient" x1="1" y1="0.584" x2="0" gradientUnits="objectBoundingBox">
      <stop offset="0" stop-color="#2697d4"/>
      <stop offset="0.5" stop-color="#207bcb"/>
      <stop offset="1" stop-color="#2285ce"/>
    </linearGradient>
  </defs>
  <path id="technologies_ic30" d="M130.89,103.345c-11.113-4.109-17.2-7.307-17.2-12.33,0-4.264,3.5-6.7,9.743-6.7,11.417,0,23.138,4.415,31.207,8.372L159.2,64.527a87.759,87.759,0,0,0-37.6-8.068c-12.786,0-23.443,3.348-31.054,9.59-7.917,6.545-12.026,15.984-12.026,27.4,0,20.7,12.635,29.532,33.186,36.991,13.244,4.719,17.659,8.069,17.659,13.244,0,5.024-4.264,7.916-12.026,7.916-9.591,0-25.421-4.719-35.774-10.807L77,169.26c8.829,5.024,25.269,10.2,42.32,10.2,13.548,0,24.813-3.2,32.424-9.285,8.524-6.7,12.939-16.593,12.939-29.38,0-21.16-12.939-29.99-33.8-37.448Z" transform="translate(-77 -56.459)" fill="url(#linear-gradient)"/>
</svg>
