<svg xmlns="http://www.w3.org/2000/svg" xmlns:xlink="http://www.w3.org/1999/xlink" width="137.625" height="122.88" viewBox="0 0 137.625 122.88">
  <defs>
    <linearGradient id="linear-gradient" x1="0.652" y1="0.045" x2="0.387" y2="1" gradientUnits="objectBoundingBox">
      <stop offset="0" stop-color="#f88535"/>
      <stop offset="1" stop-color="#fc2721"/>
    </linearGradient>
  </defs>
  <path id="technologies_ic_swift" d="M104.886,116.384c-16.223,9.332-38.53,10.29-60.972.713A95.241,95.241,0,0,1,1,80.529a72.363,72.363,0,0,0,15.851,9.622c23.176,10.816,46.348,10.076,62.655.028-23.2-17.707-42.938-40.833-57.628-59.693-3.094-3.08-5.414-6.929-7.733-10.394C31.928,36.26,60.151,56.66,70.2,62.437,48.94,40.109,30,12.394,30.767,13.163,64.4,47.038,95.719,66.286,95.719,66.286c1.036.582,1.836,1.066,2.479,1.5a50.6,50.6,0,0,0,1.773-5.348C105.383,42.8,99.2,20.476,85.666,2,116.98,20.862,135.539,56.276,127.8,85.918q-.3,1.2-.657,2.364c15.462,19.248,11.482,39.981,9.549,36.132C128.309,108.07,112.78,113.068,104.886,116.384Z" transform="translate(-1 -2)" fill="url(#linear-gradient)"/>
</svg>
