<svg id="technologies_ic18" xmlns="http://www.w3.org/2000/svg" width="137.73" height="122.88" viewBox="0 0 137.73 122.88">
  <path id="Path_150370" data-name="Path 150370" d="M39.74,0a10.935,10.935,0,0,0-9.23,5.35L1.38,56.09a11.08,11.08,0,0,0,0,10.71l29.13,50.73a10.89,10.89,0,0,0,9.23,5.35H97.99a10.935,10.935,0,0,0,9.23-5.35L136.35,66.8a11.08,11.08,0,0,0,0-10.71L107.23,5.35A10.89,10.89,0,0,0,98,0Zm.53,29.68a.964.964,0,0,1,.24,0H50.56a1.331,1.331,0,0,1,1.1.65L68.7,60.79a1.231,1.231,0,0,1,.16.49,1.412,1.412,0,0,1,.16-.49l17-30.46a1.309,1.309,0,0,1,1.14-.65H97.21a1.376,1.376,0,0,1,1.14,1.92L81.72,61.44l16.64,29.8a1.378,1.378,0,0,1-1.14,1.96H87.17a1.323,1.323,0,0,1-1.14-.69l-17-30.46a1.231,1.231,0,0,1-.16-.49,1.412,1.412,0,0,1-.16.49L51.66,92.51a1.313,1.313,0,0,1-1.1.69H40.52a1.378,1.378,0,0,1-1.14-1.96l16.64-29.8L39.38,31.6a1.367,1.367,0,0,1,.89-1.92Z" fill="#3498db" fill-rule="evenodd"/>
</svg>
