<svg id="technologies_ic19" xmlns="http://www.w3.org/2000/svg" width="128.731" height="122.88" viewBox="0 0 128.731 122.88">
  <path id="Path_150371" data-name="Path 150371" d="M117.028,122.88H96.183l1.463-17.554H87.405L85.943,122.88H42.788l-1.463-17.554H31.086l1.463,17.554H11.7L0,46.811,29.257,0H99.474l29.257,46.811ZM93.623,23.406H74.814l1.254,8.777H52.663l1.254-8.777H35.108l-11.7,23.406,5.851,46.811H99.474l5.852-46.811ZM83.383,78.087c-1.616,0-2.926-4.873-2.926-10.883s1.31-10.884,2.926-10.884,2.926,4.873,2.926,10.884S85,78.087,83.383,78.087Zm-36.937.907c-1.616,0-2.926-4.873-2.926-10.884s1.31-10.883,2.926-10.883S49.371,62.1,49.371,68.11,48.061,78.994,46.446,78.994Z" fill="#e9e9e9"/>
</svg>
