<svg id="technologies_ic16" xmlns="http://www.w3.org/2000/svg" width="122.88" height="122.88" viewBox="0 0 122.88 122.88">
  <path id="Path_150364" data-name="Path 150364" d="M61.44,33.47a28.005,28.005,0,1,0,28.01,28,28.011,28.011,0,0,0-28.01-28Zm55.93,2.54-.54-1.17-.84.98a19.209,19.209,0,0,1-7.7,5.3l-.84.3.33.84a50.2,50.2,0,1,1-24.82-26.1l.78.37.33-.84a19.336,19.336,0,0,1,5.68-7.42l.99-.84-1.13-.59A60.833,60.833,0,0,0,61.58,0h-.16a61.435,61.435,0,1,0,55.92,35.94l.03.07ZM114.4,23.19a12.75,12.75,0,1,0-12.75,12.77A12.746,12.746,0,0,0,114.4,23.19Z" fill="#478aff" fill-rule="evenodd"/>
</svg>
