<svg xmlns="http://www.w3.org/2000/svg" width="92.16" height="122.88" viewBox="0 0 92.16 122.88">
  <g id="technologies_ic_java" transform="translate(-4)">
    <path id="Path_151543" data-name="Path 151543" d="M27.825,32.412C53.124,12.772,40.14,0,40.14,0c1.932,20.3-20.9,25.1-27.025,39.05-4.177,9.521,2.86,17.856,14.7,28.363a42.342,42.342,0,0,0-4.3-6.877C17.946,52.728,12.138,44.595,27.825,32.412Z" transform="translate(22.445 0)" fill="#e76f00"/>
    <path id="Path_151544" data-name="Path 151544" d="M20.019,53.158S27.63,47.017,21.6,40.193C1.171,17.042,43.949,6.536,43.949,6.536,17.831,19.118,21.73,26.587,28.3,35.66,35.324,45.389,20.019,53.158,20.019,53.158Z" transform="translate(34.291 18.562)" fill="#e76f00"/>
    <path id="Path_151545" data-name="Path 151545" d="M23.285,40.886c23.444-11.98,12.6-23.492,5.039-21.941a17.74,17.74,0,0,0-2.681.708,4.257,4.257,0,0,1,2-1.52C42.614,12.959,54.125,33.4,22.814,41.489A2.011,2.011,0,0,0,23.285,40.886Z" transform="translate(53.433 49.145)" fill="#5382a1"/>
    <path id="Path_151546" data-name="Path 151546" d="M20.513,24.859c-14.668-1.926,8.043-7.231,8.043-7.231s-8.82-.585-19.667,4.571c-12.826,6.1,31.727,8.876,54.789,2.911a40.094,40.094,0,0,1,5.712-3.006s-9.438,1.657-18.836,2.437C39.053,25.49,26.706,25.675,20.513,24.859Z" transform="translate(7.422 50.009)" fill="#5382a1"/>
    <path id="Path_151547" data-name="Path 151547" d="M18.749,25.974c-8.18-.832-2.824-4.73-2.824-4.73C-5.241,28.152,27.7,35.986,57.278,27.481A14.841,14.841,0,0,1,52.135,24.4C37.68,27.135,29.327,27.048,18.749,25.974Z" transform="translate(14.767 60.333)" fill="#5382a1"/>
    <path id="Path_151548" data-name="Path 151548" d="M19.57,28.4c-8.173-.924-3.4-3.655-3.4-3.655-19.214,5.279,11.687,16.186,36.149,5.876a45.335,45.335,0,0,1-6.876-3.3C34.533,29.353,29.472,29.513,19.57,28.4Z" transform="translate(17.509 70.283)" fill="#5382a1"/>
    <path id="Path_151549" data-name="Path 151549" d="M88.245,28.107s3.534,2.863-3.892,5.078c-14.12,4.206-58.768,5.477-71.171.168-4.459-1.907,3.9-4.554,6.533-5.11a17.236,17.236,0,0,1,4.31-.476c-4.958-3.435-32.049,6.745-13.761,9.66C60.139,45.381,101.181,33.846,88.245,28.107Z" transform="translate(0 76.873)" fill="#5382a1"/>
    <path id="Path_151550" data-name="Path 151550" d="M83.872,28.968C83.053,39.439,48.5,41.641,25.993,40.225,11.312,39.3,8.37,36.985,8.327,36.952c14.051,2.278,37.739,2.693,56.947-.862C82.3,32.937,83.872,28.968,83.872,28.968Z" transform="translate(12.288 82.269)" fill="#5382a1"/>
  </g>
</svg>
