<svg xmlns="http://www.w3.org/2000/svg" width="126.634" height="122.879" viewBox="0 0 126.634 122.879">
  <path id="technologies_ic21" d="M53.84,74.2l.037.053L48.605,86.98a27.285,27.285,0,0,1-10.949-13.7l13.6-2.306L51.28,71a2.322,2.322,0,0,1,2.554,3.2Zm-4.4-11.234a2.322,2.322,0,0,0,.913-3.989l.011-.058L40.02,49.66a27.137,27.137,0,0,0-3.852,17.175l13.265-3.825.011-.047Zm6.042-10.447a2.322,2.322,0,0,0,3.688-1.778l.053-.026.791-13.824a27.142,27.142,0,0,0-15.882,7.609L55.465,52.53l.021-.011Zm4.01,14.51,3.815,1.841,3.81-1.831.95-4.116-2.638-3.287H61.19L58.552,62.92l.944,4.11Zm7.915-16.331A2.322,2.322,0,0,0,71.1,52.467l.042.016L82.407,44.5A27.375,27.375,0,0,0,66.619,36.89l.781,13.8.011.005Zm57.387,31.5L94.337,120.085a8.442,8.442,0,0,1-6.585,3.134l-48.866.016a8.442,8.442,0,0,1-6.58-3.145L1.829,82.205a8.353,8.353,0,0,1-1.62-7.071l10.87-47.251a8.343,8.343,0,0,1,4.554-5.662L59.649,1.184a8.474,8.474,0,0,1,7.308,0L110.99,22.211a8.354,8.354,0,0,1,4.554,5.662l10.88,47.251a8.308,8.308,0,0,1-1.625,7.071ZM107.444,71.341c-.222-.053-.543-.137-.765-.179a21.222,21.222,0,0,0-2.527-.2,24.645,24.645,0,0,1-4.722-.781,2.929,2.929,0,0,1-1.14-1.14l-1.061-.311a34.245,34.245,0,0,0-5.493-23.718c.274-.248.791-.7.934-.839a2.06,2.06,0,0,1,.5-1.488,24.337,24.337,0,0,1,3.92-2.754,22.388,22.388,0,0,0,2.19-1.277c.169-.127.4-.327.58-.47a2.649,2.649,0,1,0-3.282-4.121c-.179.142-.422.327-.586.464a22.593,22.593,0,0,0-1.741,1.847A24.932,24.932,0,0,1,90.7,39.587a2.943,2.943,0,0,1-1.6.174l-1,.712A34.535,34.535,0,0,0,66.218,29.9l-.063-1.177a2.081,2.081,0,0,1-.86-1.319,24.518,24.518,0,0,1,.3-4.775,22.734,22.734,0,0,0,.359-2.506c.005-.211-.005-.522-.005-.749a2.65,2.65,0,1,0-5.271,0l.005.074c0,.216-.011.485,0,.675a21.552,21.552,0,0,0,.354,2.506,24.505,24.505,0,0,1,.3,4.781,2.876,2.876,0,0,1-.855,1.361l-.063,1.113A33.9,33.9,0,0,0,38.432,40.457q-.479-.331-.95-.675a2.071,2.071,0,0,1-1.567-.153,24.551,24.551,0,0,1-3.551-3.208,21.636,21.636,0,0,0-1.736-1.842c-.158-.137-.406-.327-.586-.464a3.134,3.134,0,0,0-1.836-.7,2.538,2.538,0,0,0-2.1.929,2.8,2.8,0,0,0,.649,3.889l.037.026.549.438a21.308,21.308,0,0,0,2.184,1.277,25.02,25.02,0,0,1,3.92,2.754,2.957,2.957,0,0,1,.528,1.52l.844.755a34.1,34.1,0,0,0-5.382,23.776l-1.1.317A3.564,3.564,0,0,1,27.2,70.243a24.745,24.745,0,0,1-4.722.776,22.611,22.611,0,0,0-2.533.206c-.2.037-.475.106-.7.158l-.021.011-.037.011a2.644,2.644,0,1,0,1.171,5.134l.037-.005.053-.016.681-.153a22.676,22.676,0,0,0,2.364-.908,25,25,0,0,1,4.591-1.351,2.929,2.929,0,0,1,1.52.533l1.145-.2a34.3,34.3,0,0,0,15.2,18.974l-.475,1.15a2.562,2.562,0,0,1,.232,1.488,25.725,25.725,0,0,1-2.385,4.29,22.153,22.153,0,0,0-1.414,2.105c-.106.2-.237.5-.338.707a2.649,2.649,0,1,0,4.765,2.258v-.011c.106-.206.243-.475.327-.67a23.075,23.075,0,0,0,.76-2.417c.7-1.752,1.082-3.588,2.042-4.733a2.115,2.115,0,0,1,1.134-.554l.6-1.082a34.049,34.049,0,0,0,24.319.063l.559,1.013a2.085,2.085,0,0,1,1.351.818,24.3,24.3,0,0,1,1.8,4.432,22.224,22.224,0,0,0,.765,2.411c.084.2.227.475.327.681a2.649,2.649,0,1,0,4.765-2.258c-.106-.206-.237-.507-.343-.707a23.49,23.49,0,0,0-1.414-2.1,24.24,24.24,0,0,1-2.338-4.184,2.085,2.085,0,0,1,.2-1.551A10.169,10.169,0,0,1,80.75,93.5a34.292,34.292,0,0,0,15.2-19.112c.338.053.929.158,1.124.2a2.086,2.086,0,0,1,1.477-.549,25,25,0,0,1,4.591,1.351,20.18,20.18,0,0,0,2.364.913c.19.053.464.1.686.148l.048.016.037.005a2.644,2.644,0,1,0,1.171-5.134ZM86.533,49.665,76.244,58.878V58.9a2.322,2.322,0,0,0,.913,3.994l.016.053L90.5,66.792A27.606,27.606,0,0,0,86.533,49.66Zm-21.175,28.1a2.32,2.32,0,0,0-4.095.005h-.011L54.562,89.861a27.248,27.248,0,0,0,17.55.016l-6.7-12.115h-.053ZM75.32,70.94a2.324,2.324,0,0,0-2.554,3.208l-.016.021L78.08,87.033a27.174,27.174,0,0,0,10.98-13.8L75.341,70.913Z" transform="translate(0 -0.356)" fill="#3069de"/>
</svg>
