<svg xmlns="http://www.w3.org/2000/svg" width="109" height="122.877" viewBox="0 0 109 122.877">
  <g id="technologies_ic6" transform="translate(0 -0.003)">
    <path id="Path_144207" data-name="Path 144207" d="M68.43,87.08c-19.7,0-23.83-9.04-23.83-16.63a1.3,1.3,0,0,1,1.3-1.3h5.82A1.3,1.3,0,0,1,53,70.25c.88,5.93,3.49,8.92,15.41,8.92,9.49,0,13.52-2.14,13.52-7.18,0-2.9-1.15-5.05-15.89-6.49-12.33-1.22-19.95-3.93-19.95-13.8,0-9.08,7.66-14.49,20.5-14.49,14.42,0,21.56,5,22.46,15.76a1.314,1.314,0,0,1-.35,1,1.349,1.349,0,0,1-.96.42H81.9a1.287,1.287,0,0,1-1.26-1.01c-1.41-6.23-4.81-8.23-14.07-8.23-10.36,0-11.56,3.61-11.56,6.31,0,3.28,1.42,4.24,15.4,6.09,13.84,1.84,20.41,4.43,20.41,14.16,0,9.81-8.18,15.43-22.45,15.43l.06-.06Zm-13.91,35.8a9.453,9.453,0,0,1-4.72-1.26l-15.03-8.9c-2.25-1.26-1.15-1.7-.41-1.96a30.38,30.38,0,0,0,6.8-3.1,1.153,1.153,0,0,1,1.12.08l11.55,6.85a1.506,1.506,0,0,0,1.4,0L100.26,88.6a1.419,1.419,0,0,0,.69-1.22V35.43a1.44,1.44,0,0,0-.7-1.24L55.23,8.22a1.382,1.382,0,0,0-1.39,0l-45,25.97a1.423,1.423,0,0,0-.71,1.23V87.38a1.391,1.391,0,0,0,.7,1.21l12.33,7.12c6.69,3.35,10.79-.6,10.79-4.56V39.86a1.287,1.287,0,0,1,1.31-1.3h5.7a1.291,1.291,0,0,1,1.3,1.3V91.17c0,8.93-4.87,14.05-13.33,14.05-2.6,0-4.66,0-10.38-2.82L4.72,95.59A9.505,9.505,0,0,1,0,87.38V35.42a9.469,9.469,0,0,1,4.72-8.21l45.07-26a9.887,9.887,0,0,1,9.47,0l45.02,26.01A9.49,9.49,0,0,1,109,35.43V87.39a9.539,9.539,0,0,1-4.72,8.21l-45.02,26a9.5,9.5,0,0,1-4.74,1.26v.02Zm0,0Z" fill="#689f63" fill-rule="evenodd"/>
  </g>
</svg>
