<svg xmlns="http://www.w3.org/2000/svg" width="156.939" height="122.999" viewBox="0 0 156.939 122.999">
  <g id="technologies_ic13" transform="translate(-1502.546 -15003.986)">
    <path id="Polygon_1" data-name="Polygon 1" d="M27.054,0a3,3,0,0,1,2.608,1.517L37.556,15.4a3,3,0,0,1,0,2.965L29.662,32.255a3,3,0,0,1-2.608,1.517H11.345a3,3,0,0,1-2.608-1.517L.843,18.369a3,3,0,0,1,0-2.965L8.737,1.517A3,3,0,0,1,11.345,0Z" transform="translate(1543.015 15065.124) rotate(-90)" fill="#5e9f58"/>
    <g id="Group_41157" data-name="Group 41157" transform="translate(1502.546 15003.986)">
      <g id="_1200px-Node.js_logo.svg-_1_" data-name="1200px-Node.js_logo.svg-_1_" transform="translate(0 0)">
        <path id="Path_150351" data-name="Path 150351" d="M651.272-733.725l-.34.262v11.824c0,10.568-.026,11.837-.209,12.02a.675.675,0,0,1-.418.209,17.783,17.783,0,0,1-2.289-1.19c-2.838-1.635-2.616-1.635-5.323-.065-11.536,6.644-13.681,7.913-13.917,8.24-.275.353-.275.458-.275,9.666s0,9.326.275,9.692c.17.235,2.969,1.923,8.109,4.892,7.22,4.185,7.874,4.539,8.423,4.526.523-.013,1.2-.366,6.017-3.152,2.982-1.727,6.474-3.741,7.743-4.473a18.8,18.8,0,0,0,2.655-1.74l.327-.392v-22.235c0-24.877.092-22.628-.968-23.282-1.36-.85-9.077-5.075-9.26-5.075A1.24,1.24,0,0,0,651.272-733.725Zm-3.309,36.034a32.334,32.334,0,0,1,2.812,1.726,29.629,29.629,0,0,1-.013,6.461,59.754,59.754,0,0,1-5.506,3.113,34.471,34.471,0,0,1-5.624-3.335,56.016,56.016,0,0,1,.039-6.121,51.517,51.517,0,0,1,5.546-3.348C645.281-699.208,646.511-698.528,647.962-697.691Z" transform="translate(-546.311 734)" fill="#fff"/>
        <path id="Path_150352" data-name="Path 150352" d="M9.656-564.128C-.075-558.543.579-558.949.33-558.36c-.209.458-.222,1.4-.2,12.413.039,11.523.052,11.942.288,12.2A.883.883,0,0,0,1-533.47c.314,0,8.593-4.617,9.535-5.323a2.514,2.514,0,0,0,.589-.6c.131-.209.183-1.818.235-6.4l.065-6.121.392-.379a22.533,22.533,0,0,1,2.472-1.583c2.734-1.583,2.564-1.583,5.245-.052,2.25,1.269,2.864,1.766,3,2.407.039.235.078,2.982.078,6.121,0,5.428.013,5.7.262,6.108.2.314,1.295,1.007,4.983,3.113,2.6,1.491,4.866,2.707,5.036,2.707a.964.964,0,0,0,.576-.262c.262-.262.262-.432.262-12.295,0-13.158.039-12.5-.746-13.053-.209-.131-3.767-2.2-7.913-4.591C18.341-567.516,17.452-568,16.941-568S15.62-567.568,9.656-564.128Z" transform="translate(-0.124 589.712)" fill="#fff"/>
        <path id="Path_150353" data-name="Path 150353" d="M959.023-566.6c-1.517.719-15.46,8.92-15.7,9.221-.262.353-.262.562-.3,9.613L943-538.516l.3.458c.235.353,1.792,1.295,8,4.839,4.251,2.433,7.913,4.447,8.149,4.486.562.118.772.013,5.964-2.865,3.178-1.766,4.46-2.537,4.565-2.773.34-.746.366-.719-7.8-5.4-4.238-2.433-7.8-4.512-7.913-4.63-.2-.2-.222-.6-.222-3.27,0-2.38.039-3.1.183-3.257a44.932,44.932,0,0,1,5.454-3.1,31.029,31.029,0,0,1,5.507,3.27,9.966,9.966,0,0,1,.17,2.694c0,2.119.026,2.394.235,2.577a.921.921,0,0,0,.562.222c.366,0,9.4-5.193,9.9-5.677.432-.432.549-1.073.549-3.283s-.1-2.825-.536-3.3c-.17-.17-2.551-1.622-5.284-3.2s-6.069-3.531-7.416-4.316C959.99-567,959.938-567.03,959.023-566.6Z" transform="translate(-819.675 588.69)" fill="#fff"/>
      </g>
      <g id="technologies_ic6" transform="translate(55.146 72.916)">
        <path id="Path_144207" data-name="Path 144207" d="M27.891,35.494c-8.03,0-9.713-3.685-9.713-6.778a.529.529,0,0,1,.53-.53h2.372a.53.53,0,0,1,.522.448c.359,2.417,1.422,3.636,6.281,3.636,3.868,0,5.511-.872,5.511-2.926,0-1.182-.469-2.058-6.477-2.645-5.026-.5-8.131-1.6-8.131-5.625,0-3.7,3.122-5.906,8.356-5.906,5.877,0,8.788,2.038,9.154,6.424a.536.536,0,0,1-.143.408.55.55,0,0,1-.391.171h-2.38a.525.525,0,0,1-.514-.412c-.575-2.539-1.961-3.354-5.735-3.354-4.223,0-4.712,1.471-4.712,2.572,0,1.337.579,1.728,6.277,2.482,5.641.75,8.319,1.806,8.319,5.771,0,4-3.334,6.289-9.15,6.289l.024-.024Zm-5.67,14.592a3.853,3.853,0,0,1-1.924-.514l-6.126-3.628c-.917-.514-.469-.693-.167-.8a12.383,12.383,0,0,0,2.772-1.264.47.47,0,0,1,.457.033l4.708,2.792a.614.614,0,0,0,.571,0L40.865,36.114a.578.578,0,0,0,.281-.5V14.442a.587.587,0,0,0-.285-.505L22.511,3.352a.563.563,0,0,0-.567,0L3.6,13.937a.58.58,0,0,0-.289.5V35.617a.567.567,0,0,0,.285.493l5.026,2.9c2.727,1.365,4.4-.245,4.4-1.859V16.248a.525.525,0,0,1,.534-.53H15.88a.526.526,0,0,1,.53.53V37.162c0,3.64-1.985,5.727-5.433,5.727a7.86,7.86,0,0,1-4.231-1.149L1.924,38.963A3.874,3.874,0,0,1,0,35.617V14.438a3.859,3.859,0,0,1,1.924-3.346L20.294.495a4.03,4.03,0,0,1,3.86,0L42.5,11.1a3.868,3.868,0,0,1,1.924,3.346V35.621A3.888,3.888,0,0,1,42.5,38.967l-18.35,10.6a3.872,3.872,0,0,1-1.932.514v.008Zm0,0Z" transform="translate(0 -0.002)" fill="#689f63" fill-rule="evenodd"/>
      </g>
    </g>
  </g>
</svg>
